# xmcd
#
# Track frame offsets:
#	151
#	21948
#	49415
#	71723
#	109437
#	130932
#	163191
#	212796
#	243504
#
# Disc length: 3797 seconds
#
# Revision: 1
# Processed by: cddbd v1.4PL0 Copyright (c) Steve Scherf et al.
# Submitted via: CDmax 2.0
#
DISCID=8c0ed309
DTITLE=Eric Clapton - For One Woman (disc2)
DYEAR=2001
DGENRE=Blues
TTITLE0=I Want a Little Girl
TTITLE1=Badge
TTITLE2=Hoochie Coochie Man
TTITLE3=Five Long Years
TTITLE4=Cocaine
TTITLE5=Wonderful Tonight
TTITLE6=Layla
TTITLE7=Sunshine of Your Love
TTITLE8=Band Intro~Somewhere Over the Rainbow
EXTD=Reptile Japan Tour 2001\nEric Clapton\t\tguitars, vocals\nAndy Fairweath
EXTD=er Low\tguitars, vocals\nNathan East\t\tbass, vocals\nSteve Gadd\t\tdrum
EXTD=s\nDavid Sancious\t\tkeyboards, vocals, guitar\nGreg Phillinganes\t\tkey
EXTD=boards\n\nRecorded live at Budokan, Tokyo, Japan on December 4th, 2001\n
EXTD=\nMaster from Sylph
EXTT0=
EXTT1=This one's for George
EXTT2=
EXTT3=
EXTT4=
EXTT5=
EXTT6=
EXTT7=
EXTT8=
PLAYORDER=
